<svg xmlns="http://www.w3.org/2000/svg" width="1181" height="1181"><rect x="0" y="0" width=" 147" height=" 147" fill="black"/><rect x="0" y="147" width=" 147" height=" 147" fill="black"/><rect x="0" y="294" width=" 147" height=" 147" fill="black"/><rect x="0" y="441" width=" 147" height=" 147" fill="black"/><rect x="0" y="588" width=" 147" height=" 147" fill="black"/><rect x="0" y="735" width=" 147" height=" 147" fill="black"/><rect x="0" y="882" width=" 147" height=" 147" fill="black"/><rect x="0" y="1029" width=" 147" height=" 147" fill="black"/><rect x="147" y="0" width=" 147" height=" 147" fill="black"/><rect x="147" y="147" width=" 147" height=" 147" fill="black"/><rect x="147" y="588" width=" 147" height=" 147" fill="black"/><rect x="147" y="735" width=" 147" height=" 147" fill="black"/><rect x="147" y="1029" width=" 147" height=" 147" fill="black"/><rect x="294" y="0" width=" 147" height=" 147" fill="black"/><rect x="294" y="147" width=" 147" height=" 147" fill="black"/><rect x="294" y="294" width=" 147" height=" 147" fill="black"/><rect x="294" y="735" width=" 147" height=" 147" fill="black"/><rect x="294" y="882" width=" 147" height=" 147" fill="black"/><rect x="294" y="1029" width=" 147" height=" 147" fill="black"/><rect x="441" y="0" width=" 147" height=" 147" fill="black"/><rect x="441" y="147" width=" 147" height=" 147" fill="black"/><rect x="441" y="294" width=" 147" height=" 147" fill="black"/><rect x="441" y="441" width=" 147" height=" 147" fill="black"/><rect x="441" y="882" width=" 147" height=" 147" fill="black"/><rect x="441" y="1029" width=" 147" height=" 147" fill="black"/><rect x="588" y="0" width=" 147" height=" 147" fill="black"/><rect x="588" y="294" width=" 147" height=" 147" fill="black"/><rect x="588" y="588" width=" 147" height=" 147" fill="black"/><rect x="588" y="735" width=" 147" height=" 147" fill="black"/><rect x="588" y="1029" width=" 147" height=" 147" fill="black"/><rect x="735" y="0" width=" 147" height=" 147" fill="black"/><rect x="735" y="588" width=" 147" height=" 147" fill="black"/><rect x="735" y="1029" width=" 147" height=" 147" fill="black"/><rect x="882" y="0" width=" 147" height=" 147" fill="black"/><rect x="882" y="588" width=" 147" height=" 147" fill="black"/><rect x="882" y="735" width=" 147" height=" 147" fill="black"/><rect x="882" y="882" width=" 147" height=" 147" fill="black"/><rect x="882" y="1029" width=" 147" height=" 147" fill="black"/><rect x="1029" y="0" width=" 147" height=" 147" fill="black"/><rect x="1029" y="147" width=" 147" height=" 147" fill="black"/><rect x="1029" y="294" width=" 147" height=" 147" fill="black"/><rect x="1029" y="441" width=" 147" height=" 147" fill="black"/><rect x="1029" y="588" width=" 147" height=" 147" fill="black"/><rect x="1029" y="735" width=" 147" height=" 147" fill="black"/><rect x="1029" y="882" width=" 147" height=" 147" fill="black"/><rect x="1029" y="1029" width=" 147" height=" 147" fill="black"/></svg>