<svg xmlns="http://www.w3.org/2000/svg" width="2400" height="3600"><rect x="0" y="0" width=" 400" height=" 400" fill="black"/><rect x="0" y="800" width=" 400" height=" 400" fill="black"/><rect x="0" y="1600" width=" 400" height=" 400" fill="black"/><rect x="0" y="2400" width=" 400" height=" 400" fill="black"/><rect x="0" y="3200" width=" 400" height=" 400" fill="black"/><rect x="400" y="400" width=" 400" height=" 400" fill="black"/><rect x="400" y="1200" width=" 400" height=" 400" fill="black"/><rect x="400" y="2000" width=" 400" height=" 400" fill="black"/><rect x="400" y="2800" width=" 400" height=" 400" fill="black"/><rect x="800" y="0" width=" 400" height=" 400" fill="black"/><rect x="800" y="800" width=" 400" height=" 400" fill="black"/><rect x="800" y="1600" width=" 400" height=" 400" fill="black"/><rect x="800" y="2400" width=" 400" height=" 400" fill="black"/><rect x="800" y="3200" width=" 400" height=" 400" fill="black"/><rect x="1200" y="400" width=" 400" height=" 400" fill="black"/><rect x="1200" y="1200" width=" 400" height=" 400" fill="black"/><rect x="1200" y="2000" width=" 400" height=" 400" fill="black"/><rect x="1200" y="2800" width=" 400" height=" 400" fill="black"/><rect x="1600" y="0" width=" 400" height=" 400" fill="black"/><rect x="1600" y="800" width=" 400" height=" 400" fill="black"/><rect x="1600" y="1600" width=" 400" height=" 400" fill="black"/><rect x="1600" y="2400" width=" 400" height=" 400" fill="black"/><rect x="1600" y="3200" width=" 400" height=" 400" fill="black"/><rect x="2000" y="400" width=" 400" height=" 400" fill="black"/><rect x="2000" y="1200" width=" 400" height=" 400" fill="black"/><rect x="2000" y="2000" width=" 400" height=" 400" fill="black"/><rect x="2000" y="2800" width=" 400" height=" 400" fill="black"/></svg>